<mxfile host="65bd71144e">
    <diagram id="zGy3KV6-eT-axZNdkt8i" name="Page-1">
        <mxGraphModel dx="461" dy="407" grid="1" gridSize="10" guides="1" tooltips="1" connect="1" arrows="1" fold="1" page="1" pageScale="1" pageWidth="850" pageHeight="1100" math="0" shadow="0">
            <root>
                <mxCell id="0"/>
                <mxCell id="1" parent="0"/>
                <mxCell id="4" value="&lt;div&gt;&lt;br&gt;&lt;/div&gt;&lt;div&gt;&lt;br&gt;&lt;/div&gt;&lt;div&gt;&lt;br&gt;&lt;/div&gt;&lt;div&gt;&lt;br&gt;&lt;/div&gt;&lt;div&gt;&lt;br&gt;&lt;/div&gt;&lt;div&gt;&lt;br&gt;&lt;/div&gt;&lt;div&gt;&lt;br&gt;&lt;/div&gt;&lt;div&gt;VectorNav Component&lt;/div&gt;" style="rounded=0;whiteSpace=wrap;html=1;" parent="1" vertex="1">
                    <mxGeometry x="70" y="182.5" width="580" height="137.5" as="geometry"/>
                </mxCell>
                <mxCell id="2" value="&lt;font style=&quot;font-size: 10px;&quot;&gt;&lt;font style=&quot;&quot;&gt;SpeadStatus&lt;/font&gt;&amp;nbsp;Provider (Writer)&lt;/font&gt;" style="rounded=0;whiteSpace=wrap;html=1;fillColor=#f8cecc;strokeColor=#b85450;" parent="1" vertex="1">
                    <mxGeometry x="100" y="220" width="210" height="60" as="geometry"/>
                </mxCell>
                <mxCell id="3" value="&lt;font style=&quot;font-size: 10px;&quot;&gt;GlobalPoseStatus Provider (Writer)&lt;/font&gt;" style="rounded=0;whiteSpace=wrap;html=1;fillColor=#f8cecc;strokeColor=#b85450;" parent="1" vertex="1">
                    <mxGeometry x="370" y="220" width="250" height="60" as="geometry"/>
                </mxCell>
                <mxCell id="5" value="" style="shape=flexArrow;endArrow=classic;startArrow=classic;html=1;startWidth=30;startSize=4.33;width=34;endSize=7.67;fillColor=#ffe6cc;strokeColor=#d79b00;fontSize=12;" parent="1" edge="1">
                    <mxGeometry width="100" height="100" relative="1" as="geometry">
                        <mxPoint x="30" y="400" as="sourcePoint"/>
                        <mxPoint x="700" y="400" as="targetPoint"/>
                        <Array as="points">
                            <mxPoint x="250" y="400"/>
                        </Array>
                    </mxGeometry>
                </mxCell>
                <mxCell id="6" value="DDS Databus (UMAA Autonomy Bus)" style="edgeLabel;html=1;align=center;verticalAlign=middle;resizable=0;points=[];fontStyle=1;textShadow=1;labelBackgroundColor=#FFE6CC;fontSize=13;spacing=2;spacingTop=-9;" parent="5" vertex="1" connectable="0">
                    <mxGeometry x="-0.0372" y="-5" relative="1" as="geometry">
                        <mxPoint as="offset"/>
                    </mxGeometry>
                </mxCell>
                <object label="" id="7">
                    <mxCell style="endArrow=classic;html=1;exitX=0.5;exitY=1;exitDx=0;exitDy=0;" parent="1" source="2" edge="1">
                        <mxGeometry width="50" height="50" relative="1" as="geometry">
                            <mxPoint x="200" y="440" as="sourcePoint"/>
                            <mxPoint x="205" y="380" as="targetPoint"/>
                        </mxGeometry>
                    </mxCell>
                </object>
                <mxCell id="14" value="&lt;font style=&quot;color: rgb(63, 63, 63); font-size: 10px; text-wrap-mode: wrap; background-color: rgb(251, 251, 251);&quot;&gt;U&lt;/font&gt;&lt;font style=&quot;color: rgb(63, 63, 63); font-size: 10px; text-wrap-mode: wrap; background-color: rgb(251, 251, 251);&quot;&gt;MAA::SA::SpeadStatus::SpeedRepo&lt;/font&gt;&lt;span style=&quot;color: rgb(63, 63, 63); font-size: 10px; text-wrap-mode: wrap; background-color: rgb(251, 251, 251);&quot;&gt;rtType&lt;/span&gt;" style="edgeLabel;html=1;align=center;verticalAlign=middle;resizable=0;points=[];" vertex="1" connectable="0" parent="7">
                    <mxGeometry x="-0.0873" y="-1" relative="1" as="geometry">
                        <mxPoint x="1" y="14" as="offset"/>
                    </mxGeometry>
                </mxCell>
                <mxCell id="8" value="" style="endArrow=classic;html=1;exitX=0.444;exitY=0.983;exitDx=0;exitDy=0;exitPerimeter=0;" parent="1" source="3" edge="1">
                    <mxGeometry width="50" height="50" relative="1" as="geometry">
                        <mxPoint x="490" y="360" as="sourcePoint"/>
                        <mxPoint x="480" y="380" as="targetPoint"/>
                        <Array as="points">
                            <mxPoint x="480" y="340"/>
                        </Array>
                    </mxGeometry>
                </mxCell>
                <mxCell id="16" value="&lt;span style=&quot;color: rgb(63, 63, 63); font-size: 10px; text-wrap-mode: wrap; background-color: rgb(251, 251, 251);&quot;&gt;UMAA::SA::GlobalPoseStatus::GlobalPoseReportType&lt;/span&gt;" style="edgeLabel;html=1;align=center;verticalAlign=middle;resizable=0;points=[];" vertex="1" connectable="0" parent="8">
                    <mxGeometry x="-0.021" relative="1" as="geometry">
                        <mxPoint y="9" as="offset"/>
                    </mxGeometry>
                </mxCell>
                <mxCell id="9" value="&lt;div&gt;&lt;br&gt;&lt;/div&gt;&lt;div&gt;&lt;br&gt;&lt;/div&gt;&lt;div&gt;&lt;br&gt;&lt;/div&gt;&lt;div&gt;&lt;br&gt;&lt;/div&gt;&lt;div&gt;&lt;br&gt;&lt;/div&gt;&lt;div&gt;&lt;br&gt;&lt;/div&gt;&lt;div&gt;&lt;br&gt;&lt;/div&gt;&lt;div&gt;HSMST Control Component (Partial)&lt;/div&gt;" style="rounded=0;whiteSpace=wrap;html=1;" parent="1" vertex="1">
                    <mxGeometry x="80" y="480" width="570" height="135" as="geometry"/>
                </mxCell>
                <mxCell id="10" value="&lt;font style=&quot;color: rgb(63, 63, 63); font-size: 10px;&quot;&gt;SpeadStatus&lt;/font&gt;&lt;span style=&quot;color: rgb(63, 63, 63); font-size: 10px;&quot;&gt;&amp;nbsp;Consumer (Reader)&lt;/span&gt;" style="rounded=0;whiteSpace=wrap;html=1;fillColor=#dae8fc;strokeColor=#6c8ebf;" parent="1" vertex="1">
                    <mxGeometry x="100" y="510" width="210" height="60" as="geometry"/>
                </mxCell>
                <mxCell id="11" value="&lt;span style=&quot;color: rgb(63, 63, 63); font-size: 10px;&quot;&gt;UGlobalPoseStatus Consumer (Reader)&lt;/span&gt;" style="rounded=0;whiteSpace=wrap;html=1;fillColor=#dae8fc;strokeColor=#6c8ebf;" parent="1" vertex="1">
                    <mxGeometry x="370" y="510" width="250" height="60" as="geometry"/>
                </mxCell>
                <mxCell id="12" value="" style="endArrow=classic;html=1;" parent="1" edge="1">
                    <mxGeometry width="50" height="50" relative="1" as="geometry">
                        <mxPoint x="205" y="420" as="sourcePoint"/>
                        <mxPoint x="204.5" y="510" as="targetPoint"/>
                        <Array as="points">
                            <mxPoint x="204.5" y="480"/>
                        </Array>
                    </mxGeometry>
                </mxCell>
                <mxCell id="17" value="&lt;font style=&quot;text-wrap-mode: wrap; background-color: rgb(251, 251, 251); font-size: 10px; color: rgb(63, 63, 63);&quot;&gt;U&lt;/font&gt;&lt;font style=&quot;text-wrap-mode: wrap; background-color: rgb(251, 251, 251); font-size: 10px; color: rgb(63, 63, 63);&quot;&gt;MAA::SA::SpeadStatus::SpeedRepo&lt;/font&gt;&lt;span style=&quot;text-wrap-mode: wrap; background-color: rgb(251, 251, 251); font-size: 10px; color: rgb(63, 63, 63);&quot;&gt;rtType&lt;/span&gt;" style="edgeLabel;html=1;align=center;verticalAlign=middle;resizable=0;points=[];" vertex="1" connectable="0" parent="12">
                    <mxGeometry x="-0.3112" relative="1" as="geometry">
                        <mxPoint as="offset"/>
                    </mxGeometry>
                </mxCell>
                <mxCell id="13" value="" style="endArrow=classic;html=1;" parent="1" edge="1">
                    <mxGeometry width="50" height="50" relative="1" as="geometry">
                        <mxPoint x="480" y="420" as="sourcePoint"/>
                        <mxPoint x="479.5" y="510" as="targetPoint"/>
                        <Array as="points"/>
                    </mxGeometry>
                </mxCell>
                <mxCell id="18" value="&lt;span style=&quot;color: rgb(63, 63, 63); font-size: 10px; text-wrap-mode: wrap; background-color: rgb(251, 251, 251);&quot;&gt;UMAA::SA::GlobalPoseStatus::GlobalPoseReportType&lt;/span&gt;" style="edgeLabel;html=1;align=center;verticalAlign=middle;resizable=0;points=[];" vertex="1" connectable="0" parent="13">
                    <mxGeometry x="-0.2889" relative="1" as="geometry">
                        <mxPoint as="offset"/>
                    </mxGeometry>
                </mxCell>
            </root>
        </mxGraphModel>
    </diagram>
</mxfile>